<?xml version="1.0" ?><svg height="128" viewBox="0 0 128 128" width="128" xmlns="http://www.w3.org/2000/svg"><defs><style>
      .cls-1 {
        fill: #e9faff;
      }

      .cls-2 {
        fill: #ffe5e1;
      }

      .cls-3 {
        fill: #ffd0ca;
      }

      .cls-4 {
        fill: #89d3ff;
      }

      .cls-5 {
        fill: #7bc3ff;
      }

      .cls-6 {
        fill: #fff;
      }

      .cls-7 {
        fill: #ff859e;
      }

      .cls-8 {
        fill: #f97594;
      }

      .cls-9 {
        fill: #e8f0fc;
      }

      .cls-10, .cls-11, .cls-12 {
        fill: none;
        stroke-width: 2px;
      }

      .cls-10 {
        stroke: #c7dbf9;
        stroke-dasharray: 3.2 3.2;
      }

      .cls-10, .cls-11 {
        stroke-miterlimit: 10;
      }

      .cls-11, .cls-12 {
        stroke: #556193;
      }

      .cls-12 {
        stroke-linejoin: round;
      }
    </style></defs><title/><g id="circle"><circle class="cls-1" cx="63.5" cy="63.5" r="57.5"/></g><g id="icon"><g><g><path class="cls-2" d="M82,108l-3.4-22.18c5-5,9.84-12,10.7-20.33,2.14-20.68-10.21-32-26.38-32.94-.89-.05-1.78-.06-2.66,0a30,30,0,0,0-8,1.42,20.52,20.52,0,0,0-3.81,1.81A26.38,26.38,0,0,0,35.94,58.14c0,.57,0,1.13.06,1.69v1c0,3.82-3.6,10.28-6,13.93-.83,1.28-.1,2.49,1.62,3l4.35.62V91.8A3.2,3.2,0,0,0,39.2,95H54l1.3,13Z"/><path class="cls-3" d="M79,37.52V73a6.93,6.93,0,0,1-3.16,5.83,18.08,18.08,0,0,0-7.58,20A17.55,17.55,0,0,0,74.19,108h8.44L79.24,85.8c5-5,9.84-12,10.7-20.32C91.31,52.23,86.72,42.81,79,37.52Z"/><path class="cls-4" d="M70.15,60.35a5.65,5.65,0,0,1-11.3,0c0-3.11,5.65-14.67,5.65-14.67S70.15,57.24,70.15,60.35Z"/><path class="cls-5" d="M65.57,63.29a4.68,4.68,0,0,1-4.68-4.69c0-2.26,3.59-9.9,4.48-11.76C64.85,45.71,64.5,45,64.5,45s-5.65,11.56-5.65,14.68a5.65,5.65,0,0,0,11.3,0A4.71,4.71,0,0,1,65.57,63.29Z"/><g><path class="cls-6" d="M94,74.51V36.36a6,6,0,1,0-12-.08V74.51a6.25,6.25,0,0,1-2.85,5.25A16.35,16.35,0,0,0,72.3,97.87,16,16,0,0,0,84,109.23,16.28,16.28,0,0,0,96.82,79.75,6.24,6.24,0,0,1,94,74.51Z"/><circle class="cls-7" cx="88" cy="94" r="8"/><rect class="cls-7" height="54" width="2" x="87" y="36"/></g><path class="cls-8" d="M88,86a8,8,0,0,0-6.5,3.35A6.5,6.5,0,1,1,80,93.75c0,.08,0,.17,0,.25a8,8,0,1,0,8-8Z"/><path class="cls-9" d="M97.82,79.75A6.24,6.24,0,0,1,95,74.51V36.36a6,6,0,0,0-11.91-1.07,6.73,6.73,0,0,1,3.83,0A5.56,5.56,0,0,1,91,40.57V75.48a5.59,5.59,0,0,0,2.82,4.8,14.63,14.63,0,0,1,7.47,12.52c0,9.43-9.56,16.81-20.28,14.47-.39-.08-.77-.18-1.15-.29A15.75,15.75,0,0,0,85,109.23,16.28,16.28,0,0,0,97.82,79.75Z"/></g><g><path class="cls-10" d="M50.12,108.75A47.14,47.14,0,1,1,105.17,86.6"/><path class="cls-11" d="M82,40.54c-4.8-4.88-11.52-7.59-19.09-8-.89-.05-1.78-.06-2.66,0a30,30,0,0,0-8,1.42,20.52,20.52,0,0,0-3.81,1.81A26.38,26.38,0,0,0,35.94,58.14c0,.57,0,1.13.06,1.69v1c0,3.82-3.6,10.28-6,13.93-.83,1.28-.1,2.49,1.62,3l4.35.62V91.8A3.2,3.2,0,0,0,39.2,95H54l1.3,13H80"/><path class="cls-12" d="M70.15,60.35a5.65,5.65,0,0,1-11.3,0c0-3.11,5.65-14.67,5.65-14.67S70.15,57.24,70.15,60.35Z"/><path class="cls-11" d="M94,74.51V36.36a6,6,0,1,0-12-.08V74.51a6.25,6.25,0,0,1-2.85,5.25A16.35,16.35,0,0,0,72.3,97.87,16,16,0,0,0,84,109.23,16.28,16.28,0,0,0,96.82,79.75,6.24,6.24,0,0,1,94,74.51Z"/><line class="cls-11" x1="82" x2="85" y1="75" y2="75"/><line class="cls-11" x1="82" x2="85" y1="69" y2="69"/><line class="cls-11" x1="82" x2="85" y1="63" y2="63"/><line class="cls-11" x1="82" x2="85" y1="57" y2="57"/><line class="cls-11" x1="82" x2="85" y1="51" y2="51"/><line class="cls-11" x1="82" x2="85" y1="45" y2="45"/></g></g></g></svg>