<?xml version="1.0" ?><svg height="128" viewBox="0 0 128 128" width="128" xmlns="http://www.w3.org/2000/svg"><defs><style>
      .cls-1 {
        fill: #e9faff;
      }

      .cls-2 {
        fill: #ffe5e1;
      }

      .cls-3 {
        fill: #ffd0ca;
      }

      .cls-4, .cls-5 {
        fill: none;
        stroke-miterlimit: 10;
        stroke-width: 2px;
      }

      .cls-4 {
        stroke: #c7dbf9;
        stroke-dasharray: 3.23 3.23;
      }

      .cls-5 {
        stroke: #556193;
      }
    </style></defs><title/><g id="circle"><circle class="cls-1" cx="64.5" cy="63.5" r="57.5"/></g><g id="icon"><g><g><path class="cls-2" d="M89,99,85.59,76.79c5-5,9.84-12,10.7-20.33,2.14-20.67-10.21-32-26.38-32.93-.89-.05-1.78-.06-2.66,0a29.71,29.71,0,0,0-8,1.41,20.74,20.74,0,0,0-3.8,1.81A26.38,26.38,0,0,0,42.94,49.14c0,.57,0,1.13.06,1.69v1c0,3.82-3.6,10.29-6,13.93-.82,1.28-.1,2.5,1.62,3l4.35.62V82.8A3.2,3.2,0,0,0,46.2,86H61l1.3,13Z"/><path class="cls-3" d="M96.6,56.84C98.77,36.32,85.93,25,69.15,24.08c-.92,0-1.84-.07-2.76,0-.6,0-1.27.07-2,.13C80.57,25.6,92.72,36.84,90.6,56.84c-.67,6.39-3.84,12-7.64,16.5a11.31,11.31,0,0,0-2.52,9.07L83.14,99h6L85.81,78.54a3.07,3.07,0,0,1,.81-2.63C91.38,71,95.79,64.51,96.6,56.84Z"/></g><g><circle class="cls-4" cx="64.5" cy="63.5" r="51.5"/><line class="cls-5" x1="23" x2="28" y1="70" y2="70"/><line class="cls-5" x1="28.74" x2="32.46" y1="83.33" y2="81.16"/><line class="cls-5" x1="28.41" x2="32.26" y1="56.68" y2="58.86"/><path class="cls-5" d="M89,99,85.59,76.79c5-5,9.84-12,10.7-20.33,2.14-20.67-10.21-32-26.38-32.93-.89-.05-1.78-.06-2.66,0a29.71,29.71,0,0,0-8,1.41,20.74,20.74,0,0,0-3.8,1.81A26.38,26.38,0,0,0,42.94,49.14c0,.57,0,1.13.06,1.69v1c0,3.82-3.6,10.29-6,13.93-.82,1.28-.1,2.5,1.62,3l4.35.62V82.8A3.2,3.2,0,0,0,46.2,86H61l1.3,13Z"/></g></g></g></svg>