<?xml version="1.0" encoding="iso-8859-1"?>
<!-- Generator: Adobe Illustrator 19.1.0, SVG Export Plug-In . SVG Version: 6.00 Build 0)  -->
<svg version="1.1" id="Capa_1" xmlns="http://www.w3.org/2000/svg" xmlns:xlink="http://www.w3.org/1999/xlink" x="0px" y="0px"
	 viewBox="0 0 62.763 62.763" style="enable-background:new 0 0 62.763 62.763;" xml:space="preserve">
<g>
	<g id="group-6svg">
		<path id="path-1_26_" d="M42.519,14.179L42.519,14.179c-4.599,0-6.282-4.808-6.351-5.012c-0.181-0.535-0.046-1.127,0.349-1.531
			c2.267-2.315,5.094-4.817,5.213-4.922C43.875,0.905,45.928,0,47.859,0c5.889,0,8.114,8.066,8.495,9.659
			c0.072,0.175,0.111,0.367,0.111,0.568c0,0.825-0.665,1.493-1.489,1.5c-0.603,0.008-1.223-0.376-1.444-0.997
			c-0.032-0.059-0.276-0.441-1.102-0.441c-0.809,0-2.296,0.357-4.793,2.054C45.844,13.562,44.122,14.179,42.519,14.179z
			 M39.385,9.008c0.494,0.881,1.497,2.171,3.134,2.171c0.991,0,2.145-0.443,3.43-1.317c2.525-1.716,4.63-2.558,6.433-2.573
			C51.481,5.248,50.004,3,47.859,3c-1.204,0-2.606,0.668-4.169,1.985C43.688,4.987,41.428,6.988,39.385,9.008z"/>
		<path id="path-2_26_" d="M25.988,21.527c-2.29,0-4.773-0.898-7.381-2.671c-3.985-2.709-6.428-3.278-7.776-3.278
			c-1.878,0-2.395,1.109-2.447,1.235c-0.298,0.715-1.096,1.106-1.837,0.876c-0.739-0.229-1.191-0.963-1.031-1.721
			C5.641,15.375,8.677,1.43,17.82,1.43c2.761,0,5.73,1.322,8.822,3.93c0.07,0.061,4.511,3.99,7.957,7.51
			c0.394,0.404,0.529,0.996,0.348,1.531C34.849,14.692,32.457,21.527,25.988,21.527z M10.831,12.578
			c2.572,0,5.757,1.278,9.464,3.797c2.099,1.429,4.015,2.152,5.693,2.152c3.254,0,5.057-2.829,5.763-4.268
			c-3.24-3.242-7.028-6.592-7.069-6.628c-2.51-2.116-4.828-3.201-6.862-3.201c-4.136,0-6.748,4.684-8.134,8.237
			C10.043,12.61,10.424,12.578,10.831,12.578z"/>
		<path id="path-3_25_" d="M38.18,31.82c-0.427,0-0.85-0.182-1.147-0.533c-6.377-7.546-2.717-23.149-2.557-23.809
			c0.192-0.804,0.996-1.302,1.808-1.107c0.805,0.193,1.301,1.003,1.109,1.808c-0.037,0.147-3.465,14.785,1.931,21.172
			c0.535,0.633,0.455,1.579-0.178,2.114C38.865,31.703,38.521,31.82,38.18,31.82z"/>
		<path id="path-4_21_" d="M46.44,62.763H28.522c-3.332,0-6.39-2.829-6.962-6.441l-3.78-18.813c-0.352-2.219,0.324-4.538,1.8-6.266
			c1.347-1.576,3.225-2.48,5.151-2.48H50.23c1.928,0,3.742,0.88,5.106,2.478c1.51,1.767,2.203,4.129,1.856,6.321l-3.8,19.085
			C52.844,60.109,49.851,62.763,46.44,62.763z M24.731,31.763c-1.063,0-2.083,0.508-2.87,1.429
			c-0.913,1.069-1.335,2.484-1.129,3.787l3.781,18.813c0.309,1.95,1.988,3.971,4.009,3.971H46.44c1.918,0,3.675-1.601,3.999-3.644
			l3.801-19.085c0.197-1.257-0.252-2.753-1.184-3.845c-0.787-0.919-1.789-1.426-2.826-1.426H24.731z"/>
		<path id="path-5_14_" d="M54.291,41.763h-34c-0.828,0-1.5-0.671-1.5-1.5s0.672-1.5,1.5-1.5h34c0.828,0,1.5,0.671,1.5,1.5
			S55.119,41.763,54.291,41.763z"/>
	</g>
</g>
<g>
</g>
<g>
</g>
<g>
</g>
<g>
</g>
<g>
</g>
<g>
</g>
<g>
</g>
<g>
</g>
<g>
</g>
<g>
</g>
<g>
</g>
<g>
</g>
<g>
</g>
<g>
</g>
<g>
</g>
</svg>
