<?xml version="1.0" encoding="iso-8859-1"?>
<!-- Generator: Adobe Illustrator 19.1.0, SVG Export Plug-In . SVG Version: 6.00 Build 0)  -->
<svg version="1.1" id="Capa_1" xmlns="http://www.w3.org/2000/svg" xmlns:xlink="http://www.w3.org/1999/xlink" x="0px" y="0px"
	 viewBox="0 0 62.763 62.763" style="enable-background:new 0 0 62.763 62.763;" xml:space="preserve">
<g>
	<g id="group-6svg">
		<path id="path-1_26_" style="fill:#99746A;" d="M31.271,62.763H49.19c2.729,0,5.053-2.463,5.48-5.159l3.79-18.902
			c0.534-3.368-2.069-6.939-5.48-6.939H27.481c-3.411,0-6.014,3.331-5.48,6.7l3.79,19C26.218,60.158,28.542,62.763,31.271,62.763z"
			/>
		<path id="path-2_26_" style="fill:#81BDA4;" d="M40.338,10.685c0,0,2.39,7.05,9.204,2.417c6.815-4.632,8.153-0.875,8.153-0.875
			s-2.98-14.181-12.222-6.389C45.473,5.838,42.593,8.382,40.338,10.685z"/>
		<path id="path-3_26_" style="fill:#81BDA4;" d="M36.276,15.92c0,0-3.654,10.78-14.076,3.696
			c-10.421-7.084-12.467-1.339-12.467-1.339S14.29-3.41,28.424,8.506C28.424,8.506,32.828,12.397,36.276,15.92z"/>
		<path id="path-4_25_" d="M41.268,14.179L41.268,14.179c-4.598,0-6.281-4.808-6.35-5.012c-0.182-0.535-0.047-1.127,0.349-1.531
			c2.266-2.315,5.093-4.817,5.212-4.922C42.624,0.905,44.677,0,46.608,0c5.889,0,8.114,8.066,8.496,9.659
			c0.071,0.175,0.111,0.367,0.111,0.568c0,0.824-0.665,1.493-1.489,1.5c-0.649,0.005-1.223-0.376-1.444-0.997
			c-0.033-0.059-0.277-0.441-1.103-0.441c-0.808,0-2.296,0.357-4.793,2.054C44.593,13.562,42.872,14.179,41.268,14.179z
			 M38.134,9.008c0.495,0.881,1.497,2.171,3.134,2.171c0.991,0,2.145-0.443,3.431-1.317c2.525-1.716,4.629-2.558,6.432-2.573
			C50.231,5.248,48.753,3,46.608,3c-1.204,0-2.607,0.668-4.169,1.985C42.437,4.987,40.177,6.988,38.134,9.008z"/>
		<path id="path-5_24_" d="M24.738,21.527c-2.291,0-4.774-0.898-7.381-2.671c-3.986-2.709-6.429-3.278-7.777-3.278
			c-1.952,0-2.43,1.19-2.434,1.202c-0.264,0.744-1.059,1.154-1.82,0.941c-0.76-0.214-1.224-0.98-1.061-1.753
			C4.39,15.375,7.426,1.43,16.57,1.43c2.761,0,5.729,1.322,8.821,3.93c0.071,0.061,4.511,3.99,7.957,7.51
			c0.396,0.404,0.53,0.996,0.349,1.531C33.598,14.692,31.207,21.527,24.738,21.527z M9.58,12.578c2.573,0,5.757,1.278,9.463,3.797
			c2.101,1.429,4.017,2.152,5.695,2.152c3.254,0,5.056-2.828,5.763-4.268c-3.243-3.243-7.029-6.592-7.07-6.629
			c-2.51-2.115-4.827-3.2-6.861-3.2c-4.136,0-6.748,4.684-8.134,8.237C8.792,12.61,9.173,12.578,9.58,12.578z"/>
		<path id="path-6_23_" d="M36.929,31.82c-0.427,0-0.85-0.182-1.147-0.533c-6.376-7.546-2.717-23.149-2.558-23.809
			c0.194-0.805,1.006-1.301,1.809-1.107c0.805,0.193,1.301,1.003,1.108,1.808c-0.035,0.147-3.463,14.785,1.933,21.172
			c0.535,0.633,0.455,1.579-0.178,2.114C37.615,31.703,37.271,31.82,36.929,31.82z"/>
		<path id="path-7_17_" d="M45.19,62.763H27.271c-3.332,0-6.389-2.829-6.961-6.441l-3.78-18.813
			c-0.352-2.219,0.324-4.538,1.799-6.266c1.347-1.576,3.224-2.48,5.152-2.48H48.98c1.928,0,3.742,0.88,5.106,2.478
			c1.51,1.767,2.203,4.13,1.856,6.321l-3.801,19.085C51.594,60.109,48.601,62.763,45.19,62.763z M23.481,31.763
			c-1.064,0-2.084,0.508-2.871,1.429c-0.912,1.069-1.334,2.484-1.128,3.787l3.78,18.813c0.31,1.95,1.988,3.971,4.009,3.971H45.19
			c1.918,0,3.675-1.6,3.998-3.644l3.801-19.085c0.198-1.257-0.251-2.753-1.184-3.845c-0.786-0.919-1.788-1.426-2.825-1.426H23.481z"
			/>
		<path id="path-8_14_" d="M53.04,41.763h-34c-0.828,0-1.5-0.671-1.5-1.5s0.672-1.5,1.5-1.5h34c0.829,0,1.5,0.671,1.5,1.5
			S53.869,41.763,53.04,41.763z"/>
	</g>
</g>
<g>
</g>
<g>
</g>
<g>
</g>
<g>
</g>
<g>
</g>
<g>
</g>
<g>
</g>
<g>
</g>
<g>
</g>
<g>
</g>
<g>
</g>
<g>
</g>
<g>
</g>
<g>
</g>
<g>
</g>
</svg>
